<svg width="1440" height="1024" viewBox="0 0 1440 1024" fill="none" xmlns="http://www.w3.org/2000/svg">
<line x1="2" y1="-2" x2="298" y2="-2" transform="matrix(0.707107 0.707107 0.707107 -0.707107 -38 754.843)" stroke="#EDC628" stroke-opacity="0.5" stroke-width="4" stroke-linecap="round" stroke-linejoin="round"/>
<line x1="2" y1="-2" x2="298" y2="-2" transform="matrix(0.707107 0.707107 0.707107 -0.707107 276 665.711)" stroke="#EDC628" stroke-opacity="0.5" stroke-width="4" stroke-linecap="round" stroke-linejoin="round"/>
<line x1="2" y1="-2" x2="398" y2="-2" transform="matrix(0.707107 0.707107 0.707107 -0.707107 784 -113)" stroke="#EDC628" stroke-opacity="0.5" stroke-width="4" stroke-linecap="round" stroke-linejoin="round"/>
<line x1="2" y1="-2" x2="398" y2="-2" transform="matrix(0.707107 0.707107 0.707107 -0.707107 1197 -25)" stroke="#EDC628" stroke-opacity="0.5" stroke-width="4" stroke-linecap="round" stroke-linejoin="round"/>
<line x1="2" y1="-2" x2="548" y2="-2" transform="matrix(0.707107 0.707107 0.707107 -0.707107 488 94.934)" stroke="#EDC628" stroke-opacity="0.5" stroke-width="4" stroke-linecap="round" stroke-linejoin="round"/>
<line x1="2" y1="-2" x2="548" y2="-2" transform="matrix(0.707107 0.707107 0.707107 -0.707107 488 94.934)" stroke="#EDC628" stroke-opacity="0.5" stroke-width="4" stroke-linecap="round" stroke-linejoin="round"/>
<path d="M591 678.763L977.08 1064.84" stroke="#EDC628" stroke-opacity="0.5" stroke-width="4" stroke-linecap="round" stroke-linejoin="round"/>
<line x1="2" y1="-2" x2="548" y2="-2" transform="matrix(0.707107 0.707107 0.707107 -0.707107 1109 722.934)" stroke="#EDC628" stroke-opacity="0.5" stroke-width="4" stroke-linecap="round" stroke-linejoin="round"/>
<line x1="2" y1="-2" x2="298" y2="-2" transform="matrix(0.707107 0.707107 0.707107 -0.707107 508 483.711)" stroke="#EDC628" stroke-opacity="0.5" stroke-width="4" stroke-linecap="round" stroke-linejoin="round"/>
<line x1="2" y1="-2" x2="598" y2="-2" transform="matrix(0.707107 0.707107 0.707107 -0.707107 -148 377.579)" stroke="#EDC628" stroke-opacity="0.5" stroke-width="4" stroke-linecap="round" stroke-linejoin="round"/>
<path d="M-116 -40.5929L305.436 380.843" stroke="#EDC628" stroke-opacity="0.5" stroke-width="4" stroke-linecap="round" stroke-linejoin="round"/>
<line x1="2" y1="-2" x2="173.362" y2="-2" transform="matrix(0.707107 0.707107 0.707107 -0.707107 64 974.843)" stroke="#199479" stroke-opacity="0.5" stroke-width="4" stroke-linecap="round" stroke-linejoin="round"/>
<line x1="2" y1="-2" x2="173.362" y2="-2" transform="matrix(0.707107 0.707107 0.707107 -0.707107 658 -16.1572)" stroke="#199479" stroke-opacity="0.5" stroke-width="4" stroke-linecap="round" stroke-linejoin="round"/>
<line x1="2" y1="-2" x2="330.343" y2="-2" transform="matrix(0.707107 0.707107 0.707107 -0.707107 187.499 817.342)" stroke="#199479" stroke-opacity="0.5" stroke-width="4" stroke-linecap="round" stroke-linejoin="round"/>
<line x1="2" y1="-2" x2="330.343" y2="-2" transform="matrix(0.707107 0.707107 0.707107 -0.707107 447 771.841)" stroke="#199479" stroke-opacity="0.5" stroke-width="4" stroke-linecap="round" stroke-linejoin="round"/>
<line x1="2" y1="-2" x2="330.343" y2="-2" transform="matrix(0.707107 0.707107 0.707107 -0.707107 896 739.841)" stroke="#199479" stroke-opacity="0.5" stroke-width="4" stroke-linecap="round" stroke-linejoin="round"/>
<line x1="2" y1="-2" x2="598" y2="-2" transform="matrix(0.707107 0.707107 0.707107 -0.707107 146 -1.42126)" stroke="#199479" stroke-opacity="0.5" stroke-width="4" stroke-linecap="round" stroke-linejoin="round"/>
<line x1="2" y1="-2" x2="998" y2="-2" transform="matrix(0.707107 0.707107 0.707107 -0.707107 863 210.736)" stroke="#199479" stroke-opacity="0.5" stroke-width="4" stroke-linecap="round" stroke-linejoin="round"/>
<line x1="2" y1="-2" x2="330.343" y2="-2" transform="matrix(0.707107 0.707107 0.707107 -0.707107 197 422.841)" stroke="#199479" stroke-opacity="0.5" stroke-width="4" stroke-linecap="round" stroke-linejoin="round"/>
<line x1="2" y1="-2" x2="330.343" y2="-2" transform="matrix(0.707107 0.707107 0.707107 -0.707107 784 536.841)" stroke="#199479" stroke-opacity="0.5" stroke-width="4" stroke-linecap="round" stroke-linejoin="round"/>
<line x1="2" y1="-2" x2="330.343" y2="-2" transform="matrix(0.707107 0.707107 0.707107 -0.707107 1131 116.841)" stroke="#199479" stroke-opacity="0.5" stroke-width="4" stroke-linecap="round" stroke-linejoin="round"/>
<line x1="2" y1="-2" x2="330.343" y2="-2" transform="matrix(0.707107 0.707107 0.707107 -0.707107 -38 305.841)" stroke="#199479" stroke-opacity="0.5" stroke-width="4" stroke-linecap="round" stroke-linejoin="round"/>
<line x1="2" y1="-2" x2="398" y2="-2" transform="matrix(0.707107 0.707107 0.707107 -0.707107 1261 430)" stroke="#EDC628" stroke-opacity="0.5" stroke-width="4" stroke-linecap="round" stroke-linejoin="round"/>
</svg>
